<?xml version="1.0" standalone="no"?>
<!DOCTYPE svg PUBLIC "-//W3C//DTD SVG 20010904//EN"
 "http://www.w3.org/TR/2001/REC-SVG-20010904/DTD/svg10.dtd">
<svg version="1.0" xmlns="http://www.w3.org/2000/svg"
 width="1656.000000pt" height="1718.000000pt" viewBox="0 0 1656.000000 1718.000000"
 preserveAspectRatio="xMidYMid meet">

<g transform="translate(0.000000,1718.000000) scale(0.100000,-0.100000)"
fill="#000000" stroke="none">
<path d="M0 8590 l0 -8590 8280 0 8280 0 0 8590 0 8590 -8280 0 -8280 0 0
-8590z m8815 4706 c429 -45 727 -104 1058 -212 1114 -364 1841 -1167 2106
-2328 76 -332 110 -633 118 -1046 6 -328 -4 -562 -38 -832 -165 -1346 -811
-2343 -1844 -2848 -381 -186 -710 -281 -1205 -347 -110 -14 -281 -17 -1397
-20 l-1273 -4 0 3831 0 3831 1158 -4 c992 -3 1180 -6 1317 -21z"/>
</g>
</svg>
